<?xml version="1.0" encoding="UTF-8" standalone="no"?><!DOCTYPE svg PUBLIC "-//W3C//DTD SVG 1.1//EN" "http://www.w3.org/Graphics/SVG/1.1/DTD/svg11.dtd"><svg width="100%" height="100%" viewBox="0 0 134 134" version="1.1" xmlns="http://www.w3.org/2000/svg" xmlns:xlink="http://www.w3.org/1999/xlink" xml:space="preserve" xmlns:serif="http://www.serif.com/" style="fill-rule:evenodd;clip-rule:evenodd;stroke-linecap:round;stroke-linejoin:round;stroke-miterlimit:1.5;"><rect id="map_node" x="0" y="0" width="133.333" height="133.333" style="fill:none;"/><g><clipPath id="_clip1"><rect x="0" y="0" width="133.312" height="133.333"/></clipPath><g clip-path="url(#_clip1)"><path d="M79.114,1.172l-0.586,19.665c4.267,1.104 8.359,2.799 12.157,5.036l13.491,-14.319c6.921,4.71 12.893,10.682 17.603,17.603l-14.319,13.491c2.236,3.798 3.931,7.89 5.036,12.157l19.665,-0.586c1.563,8.225 1.563,16.67 0,24.895l-19.665,-0.586c-1.104,4.267 -2.799,8.359 -5.036,12.157l14.319,13.491c-4.71,6.921 -10.682,12.893 -17.603,17.603l-13.491,-14.319c-3.798,2.236 -7.89,3.931 -12.157,5.036l0.586,19.665c-8.225,1.563 -16.67,1.563 -24.895,-0l0.586,-19.665c-4.267,-1.104 -8.359,-2.799 -12.157,-5.036l-13.491,14.319c-6.921,-4.71 -12.893,-10.682 -17.603,-17.603l14.319,-13.491c-2.236,-3.798 -3.931,-7.89 -5.036,-12.157l-19.665,0.586c-1.563,-8.225 -1.563,-16.67 0,-24.895l19.665,0.586c1.104,-4.267 2.799,-8.359 5.036,-12.157l-14.319,-13.491c4.71,-6.921 10.682,-12.893 17.603,-17.603l13.491,14.319c3.798,-2.236 7.89,-3.931 12.157,-5.036l-0.586,-19.665c8.225,-1.563 16.67,-1.563 24.895,0Zm-12.447,42.551c12.663,0 22.943,10.281 22.943,22.943c0,12.663 -10.281,22.943 -22.943,22.943c-12.663,0 -22.943,-10.281 -22.943,-22.943c0,-12.663 10.281,-22.943 22.943,-22.943Z" style="fill:#12ff00;stroke:#000;stroke-width:1.25px;"/></g></g></svg>